HIERARCHY
ROOT root
{
	OFFSET 0.000000 0.000000 0.000000
	CHANNELS 6 Xposition Yposition Zposition Zrotation Yrotation Xrotation
	JOINT lhip
	{
		OFFSET 0.058581 -0.082280 -0.017664
		CHANNELS 3 Zrotation Yrotation Xrotation
		JOINT lknee
		{
			OFFSET 0.043451 -0.386469 0.008037
			CHANNELS 3 Zrotation Yrotation Xrotation
			JOINT lankle
			{
				OFFSET -0.014790 -0.426874 -0.037428
				CHANNELS 3 Zrotation Yrotation Xrotation
				JOINT ltoe
				{
					OFFSET 0.041054 -0.060286 0.122042
					CHANNELS 3 Zrotation Yrotation Xrotation
					End Site
					{
						OFFSET 0.000000 0.000000 0.000000
					}
				}
			}
		}
	}
	JOINT rhip
	{
		OFFSET -0.060310 -0.090513 -0.013543
		CHANNELS 3 Zrotation Yrotation Xrotation
		JOINT rknee
		{
			OFFSET -0.043257 -0.383688 -0.004843
			CHANNELS 3 Zrotation Yrotation Xrotation
			JOINT rankle
			{
				OFFSET 0.019056 -0.420046 -0.034562
				CHANNELS 3 Zrotation Yrotation Xrotation
				JOINT rtoe
				{
					OFFSET -0.034840 -0.062106 0.130323
					CHANNELS 3 Zrotation Yrotation Xrotation
					End Site
					{
						OFFSET 0.000000 0.000000 0.000000
					}
				}
			}
		}
	}
	JOINT lowerback
	{
		OFFSET 0.004439 0.124404 -0.038385
		CHANNELS 3 Zrotation Yrotation Xrotation
		JOINT upperback
		{
			OFFSET 0.004488 0.137956 0.026820
			CHANNELS 3 Zrotation Yrotation Xrotation
			JOINT chest
			{
				OFFSET -0.002265 0.056032 0.002855
				CHANNELS 3 Zrotation Yrotation Xrotation
				JOINT lowerneck
				{
					OFFSET -0.013390 0.211636 -0.033468
					CHANNELS 3 Zrotation Yrotation Xrotation
					JOINT upperneck
					{
						OFFSET 0.010113 0.088937 0.050410
						CHANNELS 3 Zrotation Yrotation Xrotation
						End Site
						{
							OFFSET 0.000000 0.000000 0.000000
						}
					}
				}
				JOINT lclavicle
				{
					OFFSET 0.071702 0.114000 -0.018898
					CHANNELS 3 Zrotation Yrotation Xrotation
					JOINT lshoulder
					{
						OFFSET 0.122921 0.045205 -0.019046
						CHANNELS 3 Zrotation Yrotation Xrotation
						JOINT lelbow
						{
							OFFSET 0.255332 -0.015649 -0.022946
							CHANNELS 3 Zrotation Yrotation Xrotation
							JOINT lwrist
							{
								OFFSET 0.265709 0.012698 -0.007375
								CHANNELS 3 Zrotation Yrotation Xrotation
								End Site
								{
									OFFSET 0.000000 0.000000 0.000000
								}
							}
						}
					}
				}
				JOINT rclavicle
				{
					OFFSET -0.082954 0.112472 -0.023707
					CHANNELS 3 Zrotation Yrotation Xrotation
					JOINT rshoulder
					{
						OFFSET -0.113228 0.046853 -0.008472
						CHANNELS 3 Zrotation Yrotation Xrotation
						JOINT relbow
						{
							OFFSET -0.260127 -0.014369 -0.031269
							CHANNELS 3 Zrotation Yrotation Xrotation
							JOINT rwrist
							{
								OFFSET -0.269108 0.006794 -0.006027
								CHANNELS 3 Zrotation Yrotation Xrotation
								End Site
								{
									OFFSET 0.000000 0.000000 0.000000
								}
							}
						}
					}
				}
			}
		}
	}
}
MOTION
Frames: 13
Frame Time: 0.033333
0.228297 0.329790 0.997880 -62.607187 1.121981 92.206913 -1.186711 -1.789318 -15.164509 -6.329917 0.955255 18.203125 5.929402 13.151274 -6.926987 0.000000 -0.000000 0.000000 -13.145072 -7.898424 -8.901157 -1.249060 -9.521739 31.410799 -0.100724 -15.421962 1.629426 0.000000 -0.000000 0.000000 -2.789477 3.637087 14.315497 0.241627 -0.856297 -4.216791 1.272528 -0.674174 -1.529216 2.484783 -3.552595 -3.399582 4.704430 -0.355970 6.348718 -26.470015 -2.954488 1.438719 -49.328535 -13.461286 3.461913 14.875982 -25.996372 -2.432092 10.556982 -5.282291 -4.307421 21.665517 4.319846 2.250548 52.619698 6.628178 13.227772 -11.226069 30.956942 5.560562 1.254993 2.892153 4.019966 
0.226513 0.325444 0.998249 -62.563154 1.860906 92.294923 -0.415777 -1.283498 -15.059141 -6.669017 0.968832 18.351703 5.882404 12.892716 -7.198352 0.000000 -0.000000 0.000000 -12.117120 -7.806745 -9.393699 -1.688732 -9.240427 32.220409 -0.400428 -15.133441 2.327048 0.000000 -0.000000 0.000000 -2.418879 3.440110 14.185161 0.304065 -0.777208 -3.855720 1.320166 -0.720529 -1.580701 2.606383 -3.740402 -3.763410 4.884219 0.013009 6.331343 -26.918699 -2.817200 1.461907 -49.860934 -13.122706 3.407189 15.756880 -25.609692 -3.552728 10.004750 -4.578752 -4.319216 21.807713 4.449668 2.312375 52.454787 6.175262 13.008757 -11.221271 30.694263 5.660781 2.675172 2.763945 3.515281 
0.224431 0.321647 0.998030 -62.547628 3.106499 92.441716 0.975694 -0.375230 -15.173534 -7.086446 0.687538 18.790005 5.858987 12.427078 -7.717962 0.000000 -0.000000 0.000000 -10.197797 -7.179037 -10.155972 -2.158261 -8.829592 33.135043 -1.399713 -15.726417 2.438845 0.000000 -0.000000 0.000000 -1.593453 3.063364 14.002956 0.580573 -0.598705 -3.560033 1.169154 -0.700798 -1.627437 3.003152 -4.015231 -3.894144 4.922146 0.557902 6.181249 -27.085459 -2.516264 1.574486 -50.283672 -12.803741 3.512942 15.950846 -24.975817 -3.630993 8.980293 -4.033145 -4.917691 21.769698 4.482369 2.494776 52.337402 5.988237 12.740920 -11.445312 30.060321 5.580649 2.700366 2.503623 3.132212 
0.221871 0.316376 0.999257 -62.645715 4.110077 91.945234 1.650244 0.513854 -14.041386 -7.137482 -0.338906 18.540424 5.876982 12.118008 -8.602231 0.000000 -0.000000 0.000000 -8.821781 -6.391354 -11.131288 -2.700709 -8.744446 35.684189 -2.398938 -16.846264 1.501369 0.000000 -0.000000 0.000000 -1.284432 2.815723 14.878653 0.910664 -0.395913 -3.450293 1.239401 -0.836354 -1.544951 3.831229 -3.559091 -4.612850 4.809735 0.699009 6.016030 -27.390297 -2.390477 1.682433 -50.164173 -12.197091 3.208991 15.879509 -23.674577 -3.711760 8.484273 -3.633170 -4.748631 22.039753 4.442556 2.095170 51.953781 5.796657 12.639001 -11.451870 29.806025 5.331329 2.594695 2.254193 2.470567 
0.221400 0.315015 0.999075 -62.601877 4.285602 91.974830 1.766038 0.543812 -13.937708 -7.183585 -0.511830 18.440995 5.886182 12.174637 -8.707399 0.000000 -0.000000 0.000000 -8.713667 -6.168160 -11.803761 -2.746254 -9.157662 36.802416 -2.658725 -17.072603 1.088302 0.000000 -0.000000 0.000000 -1.308381 2.649084 15.002715 0.987300 -0.355749 -3.462363 1.267163 -0.863009 -1.599819 3.966112 -3.377108 -4.621528 4.842508 0.770077 6.091886 -27.376178 -2.410676 1.825485 -50.140596 -11.994945 3.001879 16.039216 -23.131437 -3.850222 8.287730 -3.639878 -4.648906 21.990553 4.464488 2.225992 52.023726 5.857344 12.462487 -11.741741 29.473102 5.248690 2.633698 2.323033 2.508620 
0.220380 0.312511 0.998837 -62.570903 4.646395 92.038899 1.926962 0.734317 -13.636570 -7.109906 -1.136941 17.995862 5.922918 12.489906 -8.788989 0.000000 -0.000000 0.000000 -8.539377 -5.814547 -13.096938 -2.667838 -9.989841 38.793820 -3.332720 -17.737211 -0.056306 0.000000 -0.000000 0.000000 -1.221602 2.370097 15.409292 1.064242 -0.237869 -3.697438 1.307067 -0.925496 -1.577932 4.391297 -3.213640 -4.866413 4.909122 0.630830 6.019832 -27.333635 -2.354347 1.897076 -49.928698 -11.700028 2.612690 15.917318 -21.837473 -3.812543 9.071813 -3.459312 -4.175505 21.915055 4.379384 2.097366 52.131457 5.908924 12.165404 -11.858929 28.986834 5.095798 1.318728 2.347945 2.709025 
0.219230 0.310500 0.999018 -62.602999 4.818738 91.961782 2.093217 0.948727 -13.256892 -7.298935 -1.389207 17.759294 5.661289 12.524855 -8.988915 0.000000 -0.000000 0.000000 -8.582096 -5.537723 -14.012305 -2.453145 -10.618583 40.294831 -3.278441 -17.780577 -2.776396 0.000000 -0.000000 0.000000 -1.220486 2.206989 15.637109 1.134890 -0.169830 -3.588358 1.311303 -0.957234 -1.541076 4.780069 -2.761352 -5.213528 4.733341 0.067010 5.999419 -27.280118 -2.416339 1.867217 -49.661546 -11.407284 2.333553 16.246781 -20.807993 -4.477429 8.818351 -3.071056 -4.083653 21.980452 4.323694 1.905144 52.178623 5.879767 12.178466 -12.094002 29.395735 5.097829 1.388126 1.854272 2.212696 
0.217956 0.309334 0.999115 -62.595069 5.011012 91.888238 2.269630 1.178601 -13.045003 -7.322100 -1.642252 17.766410 5.404996 12.575926 -9.133863 0.000000 -0.000000 0.000000 -8.472161 -5.444199 -14.574759 -1.916825 -10.594610 40.322764 -2.183147 -16.388787 -5.070238 0.000000 -0.000000 0.000000 -1.096008 2.097393 15.907303 1.150406 -0.152151 -3.620371 1.332174 -1.006723 -1.531766 4.819101 -2.291002 -5.297987 4.443480 -0.035353 6.006319 -27.162674 -2.343622 1.704674 -49.532573 -11.109388 2.164405 16.675403 -19.924723 -5.108028 9.137311 -2.876736 -3.613105 21.992932 4.302359 1.830179 52.214630 5.986595 12.102846 -12.100394 29.509044 5.269441 1.363518 2.004336 2.057161 
0.216406 0.308824 0.998583 -62.619358 5.184419 91.894993 2.390934 1.287184 -12.815806 -7.226884 -2.071499 17.576456 5.199763 12.781888 -9.314299 0.000000 -0.000000 0.000000 -8.461047 -5.532700 -14.846222 -1.324129 -10.371193 38.343979 -0.729895 -14.444012 -6.394579 0.000000 -0.000000 0.000000 -0.809488 2.065828 16.188947 1.065934 -0.187617 -3.984352 1.339279 -0.960806 -1.437323 4.685956 -2.019986 -5.204707 4.508759 -0.394530 5.931464 -26.947134 -2.218771 1.492618 -49.429493 -11.010947 1.867588 17.110969 -19.266965 -6.330663 9.355301 -2.791622 -4.025945 21.897771 4.181148 1.826127 52.364668 6.048267 12.059447 -12.008165 29.935563 5.517763 1.030140 1.822587 1.920667 
0.214475 0.308454 0.998128 -62.633282 5.175017 91.909497 2.495846 1.406779 -12.775688 -7.302583 -2.039682 17.813873 4.916582 12.637031 -9.614221 0.000000 -0.000000 0.000000 -8.770487 -5.807975 -15.013736 -0.661464 -10.110393 35.346157 0.110284 -13.757351 -7.978613 0.000000 -0.000000 0.000000 -0.650852 2.100928 15.978570 1.069894 -0.206617 -3.896796 1.328963 -0.904529 -1.351002 4.723509 -1.944376 -5.363031 4.313392 -0.726112 6.029442 -26.923834 -2.071326 1.335723 -49.194810 -11.080941 1.710741 17.416325 -18.919057 -6.572726 9.489543 -2.815820 -3.247342 21.916148 4.152778 1.864843 52.271781 6.138453 12.070130 -11.875852 30.355032 5.822339 0.986347 2.095196 2.090794 
0.212105 0.308374 0.997645 -62.630314 4.898245 91.804794 2.371706 1.481785 -12.580371 -7.343250 -1.737833 18.018931 4.489559 12.410972 -10.303931 0.000000 -0.000000 0.000000 -9.377549 -5.892469 -14.829556 0.242051 -9.180633 31.265185 5.319561 -11.679087 -7.239666 0.000000 -0.000000 0.000000 -0.701078 2.270095 16.016099 1.021383 -0.210714 -4.033594 1.377172 -0.912109 -1.455683 4.439815 -1.818786 -5.149561 4.177102 -0.774825 6.260437 -26.901019 -1.884136 1.326806 -48.968587 -11.179074 1.708937 17.543803 -18.905605 -7.527524 9.843049 -3.404698 -2.366660 22.023730 3.986345 1.885477 52.136591 6.235870 12.236455 -11.578401 30.927811 5.471110 1.747768 2.543236 2.503716 
0.209173 0.308956 0.997074 -62.519631 4.781836 91.762785 2.446735 1.523497 -12.358892 -7.450468 -1.720381 18.057738 4.493521 12.178261 -10.636779 0.000000 -0.000000 0.000000 -9.607480 -5.981652 -14.643518 1.168819 -7.817748 27.200347 5.392044 -10.435883 -7.985632 0.000000 -0.000000 0.000000 -0.562751 2.332612 15.607185 1.026858 -0.173775 -3.809456 1.385485 -0.892723 -1.576264 4.436160 -2.004639 -5.047754 3.939562 -1.106722 6.318484 -27.081917 -1.709701 1.233615 -48.590164 -11.247647 1.743878 17.564751 -19.459298 -7.873993 10.071021 -3.254799 -2.603733 22.143849 3.899173 2.149186 51.905384 6.443783 12.268094 -11.400692 31.239579 5.390035 1.014072 2.591520 2.602228 
0.205738 0.309950 0.996327 -62.304002 4.577788 91.589250 2.595000 1.870890 -12.046302 -7.788500 -1.812128 18.197639 4.462777 11.866535 -10.678606 0.000000 -0.000000 0.000000 -9.997218 -6.190431 -14.347675 2.124674 -6.305609 23.534549 5.832886 -8.606876 -7.022001 0.000000 -0.000000 0.000000 -0.505564 2.395135 15.424859 1.040970 -0.139229 -3.827335 1.484892 -0.854051 -1.818834 4.141929 -2.084415 -4.394677 3.851897 -1.236600 6.462775 -27.190606 -1.570924 1.306133 -48.500229 -11.257440 1.599529 17.766625 -20.301178 -7.975469 9.298907 -3.275178 -2.609006 22.031395 3.748945 2.369376 51.924640 6.523241 12.199983 -11.404189 31.436781 5.640436 1.533860 2.512319 2.768715 
